<?xml version="1.0" encoding="UTF-8" standalone="no"?>
<svg
   width="1024"
   height="1024"
   viewBox="0 0 1024 1024"
   fill="none"
   version="1.1"
   id="svg12"
   sodipodi:docname="github.svg"
   inkscape:version="1.2.1 (9c6d41e410, 2022-07-14)"
   xmlns:inkscape="http://www.inkscape.org/namespaces/inkscape"
   xmlns:sodipodi="http://sodipodi.sourceforge.net/DTD/sodipodi-0.dtd"
   xmlns="http://www.w3.org/2000/svg"
   xmlns:svg="http://www.w3.org/2000/svg">
  <defs
     id="defs16" />
  <sodipodi:namedview
     id="namedview14"
     pagecolor="#505050"
     bordercolor="#eeeeee"
     borderopacity="1"
     inkscape:showpageshadow="0"
     inkscape:pageopacity="0"
     inkscape:pagecheckerboard="0"
     inkscape:deskcolor="#505050"
     showgrid="false"
     inkscape:zoom="0.20581055"
     inkscape:cx="833.29063"
     inkscape:cy="1396.9158"
     inkscape:window-width="1920"
     inkscape:window-height="1001"
     inkscape:window-x="1341"
     inkscape:window-y="1032"
     inkscape:window-maximized="1"
     inkscape:current-layer="svg12" />
  <path
     fill-rule="evenodd"
     clip-rule="evenodd"
     d="M8 0C3.58 0 0 3.58 0 8C0 11.54 2.29 14.53 5.47 15.59C5.87 15.66 6.02 15.42 6.02 15.21C6.02 15.02 6.01 14.39 6.01 13.72C4 14.09 3.48 13.23 3.32 12.78C3.23 12.55 2.84 11.84 2.5 11.65C2.22 11.5 1.82 11.13 2.49 11.12C3.12 11.11 3.57 11.7 3.72 11.94C4.44 13.15 5.59 12.81 6.05 12.6C6.12 12.08 6.33 11.73 6.56 11.53C4.78 11.33 2.92 10.64 2.92 7.58C2.92 6.71 3.23 5.99 3.74 5.43C3.66 5.23 3.38 4.41 3.82 3.31C3.82 3.31 4.49 3.1 6.02 4.13C6.66 3.95 7.34 3.86 8.02 3.86C8.7 3.86 9.38 3.95 10.02 4.13C11.55 3.09 12.22 3.31 12.22 3.31C12.66 4.41 12.38 5.23 12.3 5.43C12.81 5.99 13.12 6.7 13.12 7.58C13.12 10.65 11.25 11.33 9.47 11.53C9.76 11.78 10.01 12.26 10.01 13.01C10.01 14.08 10 14.94 10 15.21C10 15.42 10.15 15.67 10.55 15.59C13.71 14.53 16 11.53 16 8C16 3.58 12.42 0 8 0Z"
     transform="scale(64)"
     fill="#1B1F23"
     id="path10" />
  <path
     style="fill:#6e5494;stroke-width:0;fill-opacity:1;stroke:none;stroke-dasharray:none"
     d="M 334.04508,991.36654 C 172.98201,930.21512 55.086927,797.71855 15.140667,632.96533 4.8881189,590.68001 1.2751917,559.16007 1.2751917,512 c 0,-48.16138 3.6770143,-79.44931 14.4896203,-123.293 C 64.321384,191.81647 226.20184,41.70129 426.36299,7.9506194 c 33.31538,-5.6175575 47.92162,-6.740816 86.85172,-6.67913 38.29297,0.060676 55.70126,1.4897842 88.73881,7.2848757 125.77624,22.0623219 240.25174,92.4068849 318.47935,195.7038049 56.05824,74.02299 89.93083,160.7525 100.73843,257.93675 2.0345,18.29404 2.0413,81.21987 0.011,99.60616 -9.4423,85.50201 -35.79592,160.07739 -81.31166,230.09499 -60.09585,92.44638 -150.46491,164.00632 -254.81698,201.78023 -17.50878,6.3379 -30.03807,5.26472 -37.85916,-3.24282 -6.55505,-7.13028 -6.43531,-5.39214 -6.43531,-93.40459 0,-52.14722 -0.47238,-84.64144 -1.31175,-90.23119 -3.62345,-24.13035 -12.82231,-46.79071 -24.65821,-60.74278 l -6.47064,-7.62753 18.88485,-2.82961 c 70.13746,-10.5091 117.85681,-31.97766 153.36325,-68.99696 39.52143,-41.20535 59.37142,-100.80301 59.38234,-178.28965 0.004,-22.91298 -1.46659,-36.20067 -6.04644,-54.66192 -7.44321,-30.00339 -20.48999,-55.95332 -39.73759,-79.03773 l -6.14494,-7.36987 2.79687,-8.57917 c 5.29601,-16.24506 6.99364,-31.11185 6.32714,-55.40904 -0.67815,-24.72163 -2.78991,-37.07469 -10.09967,-59.07954 l -4.35432,-13.10794 -5.98997,-0.70943 c -6.96018,-0.82432 -24.27328,0.9328 -33.90533,3.44111 -26.03336,6.7794 -56.83574,21.11757 -88.06643,40.99397 l -13.3618,8.50395 -6.07355,-1.37183 c -23.21884,-5.24446 -48.4066,-10.02435 -61.34282,-11.64107 -24.29256,-3.036 -58.23697,-4.26264 -83.51127,-3.01784 -34.56617,1.70244 -54.84166,4.70801 -99.90985,14.8103 l -5.46619,1.22528 -15.79122,-9.98019 c -8.68517,-5.48911 -25.08375,-14.54075 -36.44128,-20.11475 -32.48592,-15.94331 -54.49811,-22.38169 -76.68284,-22.4291 l -12.30326,-0.0263 -4.32447,13.05812 c -7.11117,21.47275 -9.42642,34.80068 -10.18322,58.62059 -0.75393,23.72988 0.91232,38.59886 6.18681,55.2083 l 2.96653,9.34166 -9.03309,11.55572 c -34.33295,43.92104 -46.99096,91.76477 -41.87507,158.27594 5.33258,69.32814 25.78955,118.83119 64.43515,155.92417 34.15956,32.78716 82.80587,53.53544 147.79116,63.03484 l 18.38934,2.6881 -6.48084,7.16155 c -10.66371,11.7838 -19.0597,30.10305 -23.43742,51.13824 l -2.00365,9.62764 -9.10927,3.3501 c -18.50712,6.80631 -29.54664,8.82809 -47.97999,8.78709 -19.48566,-0.0434 -29.87823,-2.24643 -43.8949,-9.30512 -18.30822,-9.21986 -30.23018,-20.67319 -45.71376,-43.91682 -17.05598,-25.60407 -37.47754,-43.43362 -57.97853,-50.61957 -10.19062,-3.57199 -33.1058,-4.01839 -40.34585,-0.78597 -4.83355,2.15802 -6.68665,6.01159 -5.17745,10.76664 1.47962,4.66187 10.15726,12.95016 20.43281,19.51604 5.44864,3.48158 12.91303,9.43922 16.58753,13.23921 13.23157,13.68345 28.04257,37.0924 39.52455,62.46899 8.13971,17.98975 13.02092,25.18773 24.0602,35.47987 27.40102,25.54654 76.52994,34.73956 135.19985,25.29863 6.23368,-1.00309 11.61315,-1.82381 11.95439,-1.82381 0.34125,0 0.60843,22.54804 0.59376,50.10676 -0.0245,46.11665 -0.20525,50.49368 -2.26917,54.9656 -4.2946,9.30511 -12.38837,13.98929 -24.08507,13.93891 -5.49347,-0.0237 -10.72842,-1.43688 -24.02952,-6.48696 z"
     id="path191" />
</svg>
