<?xml version="1.0" encoding="UTF-8" standalone="no"?>
<svg
   viewBox="52 42 88 88"
   version="1.1"
   id="svg28"
   sodipodi:docname="gmail.svg"
   width="88"
   height="88"
   inkscape:version="1.2.1 (9c6d41e410, 2022-07-14)"
   xmlns:inkscape="http://www.inkscape.org/namespaces/inkscape"
   xmlns:sodipodi="http://sodipodi.sourceforge.net/DTD/sodipodi-0.dtd"
   xmlns="http://www.w3.org/2000/svg"
   xmlns:svg="http://www.w3.org/2000/svg">
  <defs
     id="defs32" />
  <sodipodi:namedview
     id="namedview30"
     pagecolor="#505050"
     bordercolor="#eeeeee"
     borderopacity="1"
     inkscape:showpageshadow="0"
     inkscape:pageopacity="0"
     inkscape:pagecheckerboard="0"
     inkscape:deskcolor="#505050"
     showgrid="false"
     inkscape:zoom="2.2579205"
     inkscape:cx="45.395752"
     inkscape:cy="106.07105"
     inkscape:window-width="1920"
     inkscape:window-height="1001"
     inkscape:window-x="1341"
     inkscape:window-y="1032"
     inkscape:window-maximized="1"
     inkscape:current-layer="svg28" />
  <g
     id="g3247"
     transform="translate(0,12)">
    <path
       fill="#4285f4"
       d="M 58,108.01702 H 72 V 74.017021 l -20,-15 v 42.999999 c 0,3.32 2.69,6 6,6"
       id="path18" />
    <path
       fill="#34a853"
       d="m 120,108.01702 h 14 c 3.32,0 6,-2.69 6,-6 V 59.017021 l -20,15"
       id="path20" />
    <path
       fill="#fbbc04"
       d="m 120,48.017021 v 26 l 20,-15 v -8 c 0,-7.42 -8.47,-11.65 -14.4,-7.2"
       id="path22" />
    <path
       fill="#ea4335"
       d="m 72,74.017021 v -26 l 24,18 24,-18 v 26 l -24,18"
       id="path24" />
    <path
       fill="#c5221f"
       d="m 52,51.017021 v 8 l 20,15 v -26 l -5.6,-4.2 c -5.94,-4.45 -14.4,-0.22 -14.4,7.2"
       id="path26" />
  </g>
</svg>
